<svg xmlns="http://www.w3.org/2000/svg" width="35" height="35" viewBox="0 0 35 35"><defs><style>.a{fill:#111417;}.b{fill:#fff;}</style></defs><circle class="a" cx="17.5" cy="17.5" r="17.5"/><g transform="translate(9.3 9.3)"><path class="b" d="M3.634,143.748l-.571,2.13-2.086.044a8.212,8.212,0,0,1-.06-7.655h0l1.857.34.813,1.846a4.892,4.892,0,0,0,.046,3.294Z" transform="translate(0 -133.84)"/><path class="b" d="M269.5,208.176a8.195,8.195,0,0,1-2.922,7.924h0l-2.339-.119-.331-2.067a4.886,4.886,0,0,0,2.1-2.495h-4.383v-3.243H269.5Z" transform="translate(-253.25 -201.51)"/><path class="b" d="M42.861,314.091h0a8.2,8.2,0,0,1-12.353-2.508l2.657-2.175a4.875,4.875,0,0,0,7.026,2.5Z" transform="translate(-29.532 -299.501)"/><path class="b" d="M41.137,1.887,38.482,4.061a4.875,4.875,0,0,0-7.187,2.553L28.624,4.428h0a8.2,8.2,0,0,1,12.513-2.54Z" transform="translate(-27.708)"/></g></svg>