<svg xmlns="http://www.w3.org/2000/svg" width="35" height="35" viewBox="0 0 35 35"><defs><style>.a{fill:#fff;}.b{fill:#111417;}</style></defs><circle class="a" cx="17.451" cy="17.451" r="17.451" transform="translate(0 0.099)"/><path class="b" d="M35,17.5A17.5,17.5,0,1,0,17.5,35c.1,0,.205,0,.308-.007V21.376h-3.76V16.994h3.76V13.768c0-3.739,2.283-5.776,5.619-5.776a30.542,30.542,0,0,1,3.37.171v3.91H24.5c-1.812,0-2.167.861-2.167,2.126v2.789h4.341l-.567,4.382H22.333V34.323A17.505,17.505,0,0,0,35,17.5Z"/></svg>